<svg width="220" height="220" viewBox="0 0 220 220" fill="none" xmlns="http://www.w3.org/2000/svg">
<g clip-path="url(#clip0_18967_151424)">
<mask id="mask0_18967_151424" style="mask-type:alpha" maskUnits="userSpaceOnUse" x="-1" y="-1" width="221" height="221">
<path d="M219.796 109.977C219.796 170.728 170.547 219.977 109.796 219.977C49.0446 219.977 -0.204102 170.728 -0.204102 109.977C-0.204102 49.2252 49.0446 -0.0234375 109.796 -0.0234375C170.547 -0.0234375 219.796 49.2252 219.796 109.977Z" fill="#180101"/>
</mask>
<g mask="url(#mask0_18967_151424)">
<rect width="220" height="220" fill="#F62038"/>
<path fill-rule="evenodd" clip-rule="evenodd" d="M126.082 102.785L133.772 37.8334L149.605 35.8313C152.184 35.5052 154.445 35.5545 156.387 35.9791C158.33 36.4037 159.924 37.2075 161.171 38.3904C162.477 39.5658 163.375 41.1278 163.866 43.0766C164.348 44.9655 164.423 47.241 164.089 49.9034L160.177 82.5707C159.903 85.2254 159.262 87.6219 158.252 89.7603C157.296 91.8312 156.031 93.6363 154.459 95.1756C152.886 96.715 151.032 97.9548 148.896 98.8951C146.761 99.8354 144.434 100.465 141.915 100.783L126.082 102.785ZM148.283 47.0579L145.134 47.456L139.987 89.8764L143.136 89.4782C143.795 89.3948 144.384 89.229 144.901 88.9808C145.418 88.7327 145.834 88.4059 146.148 88.0006C146.522 87.5876 146.821 87.0623 147.045 86.4247C147.329 85.7794 147.516 85.0856 147.605 84.3431L151.55 51.2146C151.639 50.4722 151.646 49.8011 151.57 49.2014C151.494 48.6016 151.313 48.137 151.028 47.8075C150.803 47.4704 150.439 47.2422 149.936 47.123C149.494 46.9961 148.942 46.9744 148.283 47.0579Z" fill="#180101"/>
<path fill-rule="evenodd" clip-rule="evenodd" d="M105.271 41.4373L90.5638 107.277L103.158 105.684L106.465 89.3625L111.963 88.6672L111.435 104.638L124.029 103.045L124.973 38.946L105.271 41.4373ZM112.33 77.5615L108.764 78.0124L111.937 62.3475L112.836 62.2337L112.33 77.5615Z" fill="#180101"/>
<path d="M55.3196 47.7536L47.6292 112.706L59.2341 111.238L62.7618 69.0226L63.6614 68.9088L63.9121 110.647L72.1885 109.6L82.4633 66.5314L83.3629 66.4176L76.9565 108.997L88.4715 107.541L96.1619 42.5891L79.879 44.6481L71.1677 87.7933L70.2681 87.9071L71.7825 45.6719L55.3196 47.7536Z" fill="#180101"/>
<path d="M194.188 118.959L193.332 125.922L180.737 127.515L181.671 119.719C181.901 118.167 181.757 117.027 181.238 116.301C180.712 115.514 179.91 115.189 178.83 115.326C177.631 115.477 176.664 116.026 175.931 116.972C175.197 117.918 174.742 119.133 174.564 120.618L174.019 124.983C173.9 125.972 173.887 126.827 173.978 127.547C174.061 128.207 174.35 128.81 174.846 129.357C175.342 129.903 176.051 130.453 176.974 131.007C177.95 131.493 179.27 132.057 180.936 132.699L183.805 133.708C185.403 134.298 186.682 135.019 187.643 135.873C188.664 136.719 189.442 137.809 189.976 139.142C190.503 140.416 190.79 141.964 190.838 143.786C190.945 145.601 190.858 147.805 190.577 150.4L190.399 151.885C189.747 157.33 187.804 161.719 184.57 165.053C181.328 168.326 177.098 170.293 171.88 170.953C166.662 171.613 162.856 170.662 160.46 168.101C158.064 165.54 157.189 161.507 157.833 156.003L158.69 149.04L171.284 147.447L170.272 155.344C170.102 156.889 170.276 158.025 170.794 158.751C171.312 159.478 172.141 159.769 173.281 159.625C174.48 159.473 175.451 158.955 176.192 158.069C176.993 157.175 177.482 155.986 177.66 154.501L178.249 149.765C178.316 148.843 178.307 148.052 178.224 147.392C178.133 146.673 177.873 146.065 177.445 145.571C177.009 145.017 176.334 144.493 175.418 144C174.503 143.506 173.276 142.96 171.738 142.363L168.475 141.13C166.877 140.54 165.567 139.822 164.546 138.976C163.578 138.063 162.826 136.939 162.292 135.605C161.75 134.211 161.425 132.607 161.318 130.793C161.263 128.911 161.38 126.703 161.668 124.168L161.902 122.402C162.524 117.205 164.374 113.041 167.452 109.909C170.581 106.711 174.725 104.785 179.883 104.133C185.04 103.481 188.881 104.458 191.404 107.064C193.919 109.609 194.847 113.574 194.188 118.959Z" fill="#180101"/>
<path fill-rule="evenodd" clip-rule="evenodd" d="M128.485 111.546L120.794 176.499L136.627 174.497C139.146 174.178 141.473 173.549 143.609 172.608C145.745 171.668 147.599 170.428 149.171 168.889C150.744 167.349 152.008 165.544 152.965 163.474C153.974 161.335 154.616 158.939 154.889 156.284L158.802 123.616C159.135 120.954 159.061 118.678 158.578 116.79C158.088 114.841 157.19 113.279 155.883 112.103C154.637 110.921 153.043 110.117 151.1 109.692C149.157 109.267 146.897 109.218 144.318 109.544L128.485 111.546ZM139.847 121.169L142.995 120.771C143.655 120.687 144.206 120.709 144.649 120.836C145.151 120.955 145.515 121.183 145.741 121.521C146.026 121.85 146.207 122.315 146.283 122.914C146.358 123.514 146.352 124.185 146.263 124.928L142.317 158.056C142.228 158.799 142.042 159.493 141.758 160.138C141.534 160.775 141.235 161.301 140.86 161.714C140.546 162.119 140.13 162.446 139.613 162.694C139.096 162.942 138.508 163.108 137.848 163.191L134.7 163.59L139.847 121.169Z" fill="#180101"/>
<path fill-rule="evenodd" clip-rule="evenodd" d="M85.2763 180.99L99.9837 115.15L119.685 112.659L118.742 176.758L106.147 178.351L106.675 162.38L101.177 163.076L97.8709 179.397L85.2763 180.99ZM103.476 151.726L107.042 151.275L107.549 135.947L106.649 136.06L103.476 151.726Z" fill="#180101"/>
<path d="M61.3179 184.019L69.0083 119.067L81.6029 117.475L75.2235 171.11L85.569 169.802L84.258 181.119L61.3179 184.019Z" fill="#180101"/>
<path d="M33.3542 20.1157L50 17.5L37.414 123.316L59.787 120.457L49.6199 207.972L43.5386 208.74L48.4234 131.945L26 134.81L33.3542 20.1157Z" fill="#180101"/>
</g>
</g>
<defs>
<clipPath id="clip0_18967_151424">
<rect width="220" height="220" fill="white"/>
</clipPath>
</defs>
</svg>
