<?xml version="1.0" encoding="utf-8"?>
<svg xmlns="http://www.w3.org/2000/svg" fill="none" height="54" viewBox="0 0 221 54" width="221">
<g filter="url(#filter0_d_6_73)">
<rect fill="white" height="48" rx="6" shape-rendering="crispEdges" width="215" x="3" y="1"/>
<path clip-rule="evenodd" d="M19 16H37V34H19V16ZM21.9991 19H33.9991V31H21.9991V19Z" fill="#1F2B2E" fill-rule="evenodd"/>
<path d="M31.0009 22.0001H25.0009V28.0001H31.0009V22.0001Z" fill="#369DAB"/>
<path d="M58.0938 31.1641C57.1458 31.1641 56.3203 31.0208 55.6172 30.7344C54.9141 30.4427 54.3672 30.0104 53.9766 29.4375C53.5859 28.8594 53.3802 28.1432 53.3594 27.2891H55.8125C55.8438 27.6745 55.9557 27.9974 56.1484 28.2578C56.3411 28.5182 56.6016 28.7135 56.9297 28.8438C57.2578 28.974 57.6354 29.0391 58.0625 29.0391C58.4688 29.0391 58.8229 28.9818 59.125 28.8672C59.4271 28.7474 59.6589 28.5833 59.8203 28.375C59.9818 28.1667 60.0625 27.9245 60.0625 27.6484C60.0625 27.3984 59.987 27.1901 59.8359 27.0234C59.6901 26.8516 59.4714 26.7031 59.1797 26.5781C58.8932 26.4531 58.5365 26.3411 58.1094 26.2422L56.8516 25.9375C55.8672 25.7083 55.0885 25.3359 54.5156 24.8203C53.9479 24.3047 53.6641 23.6146 53.6641 22.75C53.6641 22.0417 53.8568 21.4219 54.2422 20.8906C54.6276 20.3594 55.1536 19.9453 55.8203 19.6484C56.4922 19.3516 57.2552 19.2031 58.1094 19.2031C58.9844 19.2031 59.7474 19.3542 60.3984 19.6562C61.0495 19.9531 61.5547 20.3672 61.9141 20.8984C62.2786 21.4297 62.4661 22.0443 62.4766 22.7422H60.0234C59.987 22.2943 59.8021 21.9453 59.4688 21.6953C59.1354 21.4453 58.6771 21.3203 58.0938 21.3203C57.7083 21.3203 57.3802 21.375 57.1094 21.4844C56.8385 21.5938 56.6328 21.7448 56.4922 21.9375C56.3516 22.125 56.2812 22.3411 56.2812 22.5859C56.2812 22.8464 56.3594 23.0677 56.5156 23.25C56.6771 23.4271 56.8932 23.5729 57.1641 23.6875C57.4401 23.8021 57.7474 23.8984 58.0859 23.9766L59.1172 24.2266C59.638 24.3411 60.112 24.4974 60.5391 24.6953C60.9714 24.888 61.3438 25.125 61.6562 25.4062C61.9688 25.6823 62.2083 26.0078 62.375 26.3828C62.5469 26.7578 62.6328 27.1849 62.6328 27.6641C62.6328 28.3776 62.4505 28.9974 62.0859 29.5234C61.7266 30.0495 61.2083 30.4557 60.5312 30.7422C59.8594 31.0234 59.0469 31.1641 58.0938 31.1641ZM63.8553 31V22.2656H66.3631V31H63.8553ZM65.1053 21.1797C64.7355 21.1797 64.4204 21.0573 64.16 20.8125C63.8996 20.5677 63.7694 20.2734 63.7694 19.9297C63.7694 19.5807 63.8996 19.2865 64.16 19.0469C64.4204 18.8021 64.7355 18.6797 65.1053 18.6797C65.4751 18.6797 65.7902 18.8021 66.0506 19.0469C66.311 19.2865 66.4412 19.5781 66.4412 19.9219C66.4412 20.2708 66.311 20.5677 66.0506 20.8125C65.7902 21.0573 65.4751 21.1797 65.1053 21.1797ZM71.8669 34.4531C70.6742 34.4531 69.7393 34.2135 69.0622 33.7344C68.3851 33.2604 67.9789 32.6693 67.8434 31.9609L70.1716 31.7031C70.2341 31.8802 70.3382 32.0417 70.4841 32.1875C70.6299 32.3333 70.82 32.4505 71.0544 32.5391C71.294 32.6276 71.583 32.6719 71.9216 32.6719C72.4372 32.6719 72.8617 32.5469 73.195 32.2969C73.5283 32.0521 73.695 31.6354 73.695 31.0469V29.4609H73.5934C73.4893 29.7057 73.3278 29.9375 73.1091 30.1562C72.8903 30.3698 72.6143 30.5443 72.2809 30.6797C71.9528 30.8151 71.5596 30.8828 71.1012 30.8828C70.4554 30.8828 69.8643 30.7318 69.3278 30.4297C68.7966 30.1224 68.3695 29.6536 68.0466 29.0234C67.7289 28.3932 67.57 27.5938 67.57 26.625C67.57 25.625 67.7315 24.7943 68.0544 24.1328C68.3825 23.4714 68.8148 22.9766 69.3512 22.6484C69.8877 22.3203 70.471 22.1562 71.1012 22.1562C71.5856 22.1562 71.9919 22.237 72.32 22.3984C72.6533 22.5599 72.9242 22.7656 73.1325 23.0156C73.3408 23.2604 73.4997 23.5052 73.6091 23.75H73.7028V22.2656H76.1637V31.0781C76.1637 31.8177 75.9815 32.4375 75.6169 32.9375C75.2523 33.4427 74.7471 33.8203 74.1012 34.0703C73.4554 34.3255 72.7106 34.4531 71.8669 34.4531ZM71.9216 29.0078C72.4841 29.0078 72.9216 28.7969 73.2341 28.375C73.5466 27.9479 73.7028 27.3594 73.7028 26.6094C73.7028 26.1094 73.6325 25.6745 73.4919 25.3047C73.3512 24.9349 73.1481 24.6484 72.8825 24.4453C72.6221 24.2422 72.3018 24.1406 71.9216 24.1406C71.5361 24.1406 71.2106 24.2448 70.945 24.4531C70.6794 24.6615 70.4789 24.9531 70.3434 25.3281C70.208 25.6979 70.1403 26.125 70.1403 26.6094C70.1403 27.099 70.208 27.526 70.3434 27.8906C70.4789 28.25 70.6794 28.526 70.945 28.7188C71.2106 28.9115 71.5361 29.0078 71.9216 29.0078ZM80.23 25.9766V31H77.7222V22.2656H80.1909V23.8359H80.2769C80.4696 23.3151 80.7821 22.9062 81.2144 22.6094C81.6467 22.3073 82.1883 22.1562 82.8394 22.1562C83.4487 22.1562 83.9774 22.2891 84.4253 22.5547C84.8784 22.8203 85.23 23.2005 85.48 23.6953C85.73 24.1849 85.855 24.7682 85.855 25.4453V31H83.355V25.8984C83.355 25.3776 83.2196 24.9688 82.9487 24.6719C82.6831 24.375 82.3133 24.2266 81.8394 24.2266C81.5217 24.2266 81.2404 24.2969 80.9956 24.4375C80.756 24.5781 80.5685 24.7786 80.4331 25.0391C80.2977 25.2943 80.23 25.6068 80.23 25.9766ZM90.7141 31V22.2656H93.2219V31H90.7141ZM91.9641 21.1797C91.5943 21.1797 91.2792 21.0573 91.0187 20.8125C90.7583 20.5677 90.6281 20.2734 90.6281 19.9297C90.6281 19.5807 90.7583 19.2865 91.0187 19.0469C91.2792 18.8021 91.5943 18.6797 91.9641 18.6797C92.3339 18.6797 92.649 18.8021 92.9094 19.0469C93.1698 19.2865 93.3 19.5781 93.3 19.9219C93.3 20.2708 93.1698 20.5677 92.9094 20.8125C92.649 21.0573 92.3339 21.1797 91.9641 21.1797ZM97.2881 25.9766V31H94.7803V22.2656H97.2491V23.8359H97.335C97.5277 23.3151 97.8402 22.9062 98.2725 22.6094C98.7048 22.3073 99.2465 22.1562 99.8975 22.1562C100.507 22.1562 101.036 22.2891 101.483 22.5547C101.937 22.8203 102.288 23.2005 102.538 23.6953C102.788 24.1849 102.913 24.7682 102.913 25.4453V31H100.413V25.8984C100.413 25.3776 100.278 24.9688 100.007 24.6719C99.7412 24.375 99.3715 24.2266 98.8975 24.2266C98.5798 24.2266 98.2985 24.2969 98.0537 24.4375C97.8142 24.5781 97.6267 24.7786 97.4912 25.0391C97.3558 25.2943 97.2881 25.6068 97.2881 25.9766ZM109.467 31L107.116 22.2656H109.647L110.96 28.0703H111.038L112.421 22.2656H114.889L116.288 28.0391H116.366L117.647 22.2656H120.178L117.827 31H115.163L113.702 25.6016H113.592L112.132 31H109.467ZM121.073 31V22.2656H123.581V31H121.073ZM122.323 21.1797C121.953 21.1797 121.638 21.0573 121.378 20.8125C121.117 20.5677 120.987 20.2734 120.987 19.9297C120.987 19.5807 121.117 19.2865 121.378 19.0469C121.638 18.8021 121.953 18.6797 122.323 18.6797C122.693 18.6797 123.008 18.8021 123.268 19.0469C123.529 19.2865 123.659 19.5781 123.659 19.9219C123.659 20.2708 123.529 20.5677 123.268 20.8125C123.008 21.0573 122.693 21.1797 122.323 21.1797ZM129.842 22.2656V24.1484H124.53V22.2656H129.842ZM125.709 20.1875H128.209V28.2969C128.209 28.5729 128.272 28.7786 128.397 28.9141C128.527 29.0495 128.73 29.1172 129.006 29.1172C129.1 29.1172 129.204 29.1094 129.319 29.0938C129.439 29.0729 129.537 29.0521 129.616 29.0312L130.006 30.8906C129.73 30.974 129.465 31.0339 129.209 31.0703C128.959 31.1068 128.712 31.125 128.467 31.125C127.582 31.125 126.899 30.9062 126.42 30.4688C125.946 30.0312 125.709 29.4141 125.709 28.6172V20.1875ZM133.744 25.9766V31H131.237V19.3594H133.658V23.8359H133.768C133.966 23.3151 134.283 22.9062 134.721 22.6094C135.164 22.3073 135.716 22.1562 136.377 22.1562C136.987 22.1562 137.518 22.2891 137.971 22.5547C138.424 22.8203 138.776 23.1979 139.026 23.6875C139.276 24.1771 139.401 24.763 139.401 25.4453V31H136.893V25.8984C136.893 25.3724 136.76 24.9635 136.494 24.6719C136.229 24.375 135.854 24.2266 135.369 24.2266C135.046 24.2266 134.763 24.2969 134.518 24.4375C134.278 24.5781 134.088 24.7786 133.948 25.0391C133.812 25.2943 133.744 25.6068 133.744 25.9766Z" fill="#1F2B2E"/>
<path d="M144.291 19.3594H147.439L150.58 27.0312H150.713L153.861 19.3594H157.018V31H154.525V23.5234H154.439L151.471 30.9375H149.807L146.861 23.5H146.768V31H144.291V19.3594ZM161.092 31.1641C160.534 31.1641 160.037 31.0677 159.599 30.875C159.162 30.6771 158.818 30.388 158.568 30.0078C158.323 29.6224 158.201 29.1406 158.201 28.5625C158.201 28.0781 158.287 27.6719 158.459 27.3438C158.631 27.0156 158.87 26.75 159.177 26.5469C159.485 26.3438 159.834 26.1901 160.224 26.0859C160.615 25.9766 161.029 25.901 161.467 25.8594C161.972 25.8125 162.378 25.7656 162.685 25.7188C162.993 25.6719 163.217 25.6016 163.357 25.5078C163.498 25.4089 163.568 25.2682 163.568 25.0859V25.0469C163.568 24.7083 163.459 24.4453 163.24 24.2578C163.021 24.0651 162.714 23.9688 162.318 23.9688C161.901 23.9688 161.568 24.0599 161.318 24.2422C161.068 24.4245 160.904 24.6615 160.826 24.9531L158.506 24.7891C158.61 24.2578 158.826 23.7969 159.154 23.4062C159.487 23.0104 159.92 22.7031 160.451 22.4844C160.987 22.2656 161.615 22.1562 162.334 22.1562C162.834 22.1562 163.308 22.2161 163.756 22.3359C164.204 22.4505 164.602 22.6302 164.951 22.875C165.3 23.1146 165.573 23.4193 165.771 23.7891C165.974 24.1589 166.076 24.5964 166.076 25.1016V31H163.693V29.7812H163.631C163.485 30.0625 163.295 30.3073 163.06 30.5156C162.826 30.7188 162.545 30.8776 162.217 30.9922C161.894 31.1068 161.519 31.1641 161.092 31.1641ZM161.818 29.4531C162.162 29.4531 162.467 29.3854 162.732 29.25C162.998 29.1094 163.206 28.9219 163.357 28.6875C163.508 28.4531 163.584 28.1849 163.584 27.8828V26.9844C163.511 27.026 163.409 27.0677 163.279 27.1094C163.154 27.151 163.013 27.1875 162.857 27.2188C162.701 27.25 162.545 27.2786 162.388 27.3047C162.232 27.3255 162.089 27.3438 161.959 27.3594C161.677 27.401 161.433 27.4688 161.224 27.5625C161.021 27.651 160.862 27.7708 160.748 27.9219C160.638 28.0677 160.584 28.25 160.584 28.4688C160.584 28.7917 160.698 29.0365 160.927 29.2031C161.162 29.3698 161.459 29.4531 161.818 29.4531ZM172.33 22.2656V24.1484H167.017V22.2656H172.33ZM168.197 20.1875H170.697V28.2969C170.697 28.5729 170.759 28.7786 170.884 28.9141C171.015 29.0495 171.218 29.1172 171.494 29.1172C171.588 29.1172 171.692 29.1094 171.806 29.0938C171.926 29.0729 172.025 29.0521 172.103 29.0312L172.494 30.8906C172.218 30.974 171.952 31.0339 171.697 31.0703C171.447 31.1068 171.199 31.125 170.955 31.125C170.069 31.125 169.387 30.9062 168.908 30.4688C168.434 30.0312 168.197 29.4141 168.197 28.6172V20.1875ZM173.537 31V22.2656H175.966V23.8203H176.06C176.216 23.263 176.479 22.8464 176.849 22.5703C177.224 22.2891 177.654 22.1484 178.138 22.1484C178.258 22.1484 178.388 22.1562 178.529 22.1719C178.669 22.1875 178.794 22.2083 178.904 22.2344V24.4453C178.784 24.4036 178.622 24.3724 178.419 24.3516C178.216 24.3307 178.029 24.3203 177.857 24.3203C177.513 24.3203 177.203 24.3958 176.927 24.5469C176.651 24.6979 176.435 24.9089 176.279 25.1797C176.122 25.4453 176.044 25.7552 176.044 26.1094V31H173.537ZM179.79 31V22.2656H182.298V31H179.79ZM181.04 21.1797C180.671 21.1797 180.355 21.0573 180.095 20.8125C179.835 20.5677 179.704 20.2734 179.704 19.9297C179.704 19.5807 179.835 19.2865 180.095 19.0469C180.355 18.8021 180.671 18.6797 181.04 18.6797C181.41 18.6797 181.725 18.8021 181.986 19.0469C182.246 19.2865 182.376 19.5781 182.376 19.9219C182.376 20.2708 182.246 20.5677 181.986 20.8125C181.725 21.0573 181.41 21.1797 181.04 21.1797ZM187.825 31.1641C186.924 31.1641 186.151 30.974 185.505 30.5938C184.859 30.2135 184.364 29.6875 184.021 29.0156C183.677 28.3385 183.505 27.5547 183.505 26.6641C183.505 25.7734 183.677 24.9896 184.021 24.3125C184.37 23.6354 184.867 23.1068 185.513 22.7266C186.159 22.3464 186.927 22.1562 187.818 22.1562C188.594 22.1562 189.271 22.2969 189.849 22.5781C190.427 22.8594 190.883 23.2552 191.216 23.7656C191.549 24.2708 191.729 24.8646 191.755 25.5469H189.403C189.362 25.2552 189.273 25.0026 189.138 24.7891C189.008 24.5703 188.833 24.401 188.614 24.2812C188.401 24.1615 188.148 24.1016 187.857 24.1016C187.492 24.1016 187.174 24.2005 186.903 24.3984C186.638 24.5911 186.429 24.8776 186.278 25.2578C186.133 25.638 186.06 26.099 186.06 26.6406C186.06 27.1823 186.133 27.6484 186.278 28.0391C186.424 28.4245 186.633 28.7188 186.903 28.9219C187.174 29.125 187.492 29.2266 187.857 29.2266C188.263 29.2266 188.604 29.0964 188.88 28.8359C189.161 28.5703 189.336 28.2057 189.403 27.7422H191.755C191.724 28.4245 191.544 29.0234 191.216 29.5391C190.893 30.0547 190.443 30.4557 189.864 30.7422C189.291 31.0234 188.612 31.1641 187.825 31.1641ZM195.423 31.1641C194.866 31.1641 194.368 31.0677 193.931 30.875C193.493 30.6771 193.149 30.388 192.899 30.0078C192.655 29.6224 192.532 29.1406 192.532 28.5625C192.532 28.0781 192.618 27.6719 192.79 27.3438C192.962 27.0156 193.201 26.75 193.509 26.5469C193.816 26.3438 194.165 26.1901 194.556 26.0859C194.946 25.9766 195.36 25.901 195.798 25.8594C196.303 25.8125 196.709 25.7656 197.017 25.7188C197.324 25.6719 197.548 25.6016 197.688 25.5078C197.829 25.4089 197.899 25.2682 197.899 25.0859V25.0469C197.899 24.7083 197.79 24.4453 197.571 24.2578C197.352 24.0651 197.045 23.9688 196.649 23.9688C196.233 23.9688 195.899 24.0599 195.649 24.2422C195.399 24.4245 195.235 24.6615 195.157 24.9531L192.837 24.7891C192.941 24.2578 193.157 23.7969 193.485 23.4062C193.819 23.0104 194.251 22.7031 194.782 22.4844C195.319 22.2656 195.946 22.1562 196.665 22.1562C197.165 22.1562 197.639 22.2161 198.087 22.3359C198.535 22.4505 198.933 22.6302 199.282 22.875C199.631 23.1146 199.905 23.4193 200.102 23.7891C200.306 24.1589 200.407 24.5964 200.407 25.1016V31H198.024V29.7812H197.962C197.816 30.0625 197.626 30.3073 197.392 30.5156C197.157 30.7188 196.876 30.8776 196.548 30.9922C196.225 31.1068 195.85 31.1641 195.423 31.1641ZM196.149 29.4531C196.493 29.4531 196.798 29.3854 197.063 29.25C197.329 29.1094 197.537 28.9219 197.688 28.6875C197.839 28.4531 197.915 28.1849 197.915 27.8828V26.9844C197.842 27.026 197.741 27.0677 197.61 27.1094C197.485 27.151 197.345 27.1875 197.188 27.2188C197.032 27.25 196.876 27.2786 196.72 27.3047C196.563 27.3255 196.42 27.3438 196.29 27.3594C196.009 27.401 195.764 27.4688 195.556 27.5625C195.352 27.651 195.194 27.7708 195.079 27.9219C194.97 28.0677 194.915 28.25 194.915 28.4688C194.915 28.7917 195.03 29.0365 195.259 29.2031C195.493 29.3698 195.79 29.4531 196.149 29.4531Z" fill="#1F2B2E"/>
</g>
<defs>
<filter color-interpolation-filters="sRGB" filterUnits="userSpaceOnUse" height="54" id="filter0_d_6_73" width="221" x="0" y="0">
<feFlood flood-opacity="0" result="BackgroundImageFix"/>
<feColorMatrix in="SourceAlpha" result="hardAlpha" type="matrix" values="0 0 0 0 0 0 0 0 0 0 0 0 0 0 0 0 0 0 127 0"/>
<feOffset dy="2"/>
<feGaussianBlur stdDeviation="1.5"/>
<feComposite in2="hardAlpha" operator="out"/>
<feColorMatrix type="matrix" values="0 0 0 0 0 0 0 0 0 0 0 0 0 0 0 0 0 0 0.05 0"/>
<feBlend in2="BackgroundImageFix" mode="normal" result="effect1_dropShadow_6_73"/>
<feBlend in="SourceGraphic" in2="effect1_dropShadow_6_73" mode="normal" result="shape"/>
</filter>
</defs>
</svg>